<?xml version="1.0" standalone="no"?>
<!DOCTYPE svg PUBLIC "-//W3C//DTD SVG 20010904//EN"
 "http://www.w3.org/TR/2001/REC-SVG-20010904/DTD/svg10.dtd">
<svg version="1.0" xmlns="http://www.w3.org/2000/svg"
 width="700.000000pt" height="700.000000pt" viewBox="0 0 700.000000 700.000000"
 preserveAspectRatio="xMidYMid meet">
<metadata>
Created by potrace 1.11, written by Peter Selinger 2001-2013
</metadata>
<g transform="translate(0.000000,700.000000) scale(0.100000,-0.100000)"
fill="#000000" stroke="none">
<path d="M5990 6990 c-259 -35 -538 -109 -765 -204 -16 -7 -46 -19 -65 -26
-179 -66 -631 -292 -809 -404 -22 -15 -43 -26 -45 -26 -4 0 -75 -43 -220 -135
-199 -126 -612 -421 -781 -559 -105 -85 -281 -232 -315 -262 -162 -146 -250
-219 -279 -231 -34 -15 -119 -16 -157 -2 -11 4 -34 10 -50 13 -16 2 -38 7 -49
10 -347 84 -350 85 -425 81 -83 -4 -173 -31 -235 -72 -22 -14 -430 -416 -907
-893 -682 -682 -869 -874 -876 -901 -16 -61 19 -112 87 -126 20 -4 38 -8 41
-8 3 -1 28 -5 55 -10 28 -4 59 -9 70 -11 11 -3 49 -9 85 -14 78 -11 264 -40
450 -70 74 -12 144 -23 155 -25 94 -13 250 -39 320 -52 75 -13 182 -10 248 9
84 23 126 43 197 97 102 77 31 133 800 -636 373 -373 683 -688 689 -701 16
-30 3 -69 -38 -121 -95 -120 -130 -271 -102 -441 13 -80 19 -115 27 -159 3
-19 8 -53 10 -75 3 -23 7 -48 9 -56 3 -8 7 -31 10 -50 8 -59 54 -357 80 -515
29 -185 35 -219 41 -270 12 -85 58 -145 111 -145 9 0 35 11 57 25 23 13 426
410 897 882 915 917 891 890 926 1026 16 62 19 149 8 197 -3 14 -8 36 -11 50
-3 14 -10 43 -16 65 -5 22 -12 47 -13 57 -2 9 -17 74 -34 145 -17 70 -33 137
-35 148 -6 30 16 86 44 116 41 42 102 110 170 189 36 41 70 80 76 85 6 6 60
71 119 145 60 74 112 137 115 140 34 28 429 585 506 713 16 27 34 56 39 65 6
9 26 42 46 72 100 155 359 644 416 785 7 17 24 57 38 90 40 89 139 358 168
455 43 141 89 344 102 450 2 19 7 60 11 90 11 82 7 297 -6 370 -27 152 -74
269 -147 365 -101 133 -233 209 -438 256 -59 13 -327 19 -405 9z m-581 -1024
c309 -68 522 -281 585 -584 13 -64 14 -208 2 -262 -3 -14 -8 -38 -12 -53 -11
-53 -56 -152 -99 -217 -272 -417 -887 -436 -1184 -37 -53 71 -84 130 -110 210
-57 169 -46 373 27 527 33 70 100 166 148 214 101 100 272 187 397 202 28 4
53 7 55 9 5 4 165 -4 191 -9z"/>
<path d="M1617 2553 c-122 -125 -273 -332 -417 -573 -66 -111 -220 -407 -259
-500 -13 -30 -32 -75 -43 -100 -36 -81 -45 -104 -81 -200 -39 -105 -95 -288
-103 -335 -2 -16 -8 -52 -12 -80 -8 -53 3 -134 19 -136 5 -1 15 -2 22 -3 13
-2 95 34 300 133 70 33 134 61 142 61 7 0 16 4 19 9 3 4 27 16 53 26 26 10 66
26 88 36 23 10 153 61 289 114 137 53 301 121 365 152 214 103 397 239 618
461 44 45 44 83 0 137 -43 55 -793 803 -838 838 -59 44 -86 38 -162 -40z"/>
</g>
</svg>
